<?xml version="1.0" standalone="no"?><!DOCTYPE svg PUBLIC "-//W3C//DTD SVG 1.1//EN" "http://www.w3.org/Graphics/SVG/1.1/DTD/svg11.dtd"><svg t="1640263778067" class="icon" viewBox="0 0 1024 1024" version="1.1" xmlns="http://www.w3.org/2000/svg" p-id="13549" xmlns:xlink="http://www.w3.org/1999/xlink" width="200" height="200"><defs><style type="text/css"></style></defs><path d="M64 64m153.6 0l588.8 0q153.6 0 153.6 153.6l0 588.8q0 153.6-153.6 153.6l-588.8 0q-153.6 0-153.6-153.6l0-588.8q0-153.6 153.6-153.6Z" fill="#9161CE" p-id="13550"></path><path d="M317.12 256.192h223.936c46.848 0 84.48 10.624 112.704 32.192 28.288 21.504 42.496 53.824 42.496 97.344 0 26.368-6.464 33.152-19.328 51.84-12.928 18.752-31.36 33.408-55.36 43.648 32.192 8.32 56.64 23.552 73.216 47.168 16.512 23.68 24.832 53.248 24.832 88.96 0 20.48-3.648 50.496-10.944 68.224a115.84 115.84 0 0 1-34.432 46.08 175.104 175.104 0 0 1-60.032 30.72c-24.448 7.68-53.44 11.456-87.04 11.456H317.056V256.192z m228.608 203.072c22.016 0 40.32-6.144 54.912-18.752 14.656-12.608 21.952-14.72 21.952-38.08 0-26.368-6.592-44.928-19.712-55.68-13.184-10.624-32.256-16.064-57.088-16.064H408.64v128.576h137.088zM408.64 699.136h149.568c27.84 0 49.472-7.168 64.704-21.632 15.36-14.336 23.168-45.632 23.168-72 0-25.92-7.68-45.696-23.168-59.712-15.488-14.08-36.864-20.8-64.704-20.8H408.64v174.144z" fill="#EDF2F7" p-id="13551"></path></svg>