<?xml version="1.0" standalone="no"?><!DOCTYPE svg PUBLIC "-//W3C//DTD SVG 1.1//EN" "http://www.w3.org/Graphics/SVG/1.1/DTD/svg11.dtd"><svg t="1641480671009" class="icon" viewBox="0 0 1024 1024" version="1.1" xmlns="http://www.w3.org/2000/svg" p-id="74482" xmlns:xlink="http://www.w3.org/1999/xlink" width="200" height="200"><defs><style type="text/css"></style></defs><path d="M191.893271 155.815482l654.481937 0 0 654.481938-654.481937 0 0-654.481938Z" fill="#492B0E" p-id="74483"></path><path d="M460.596724 895.583327c10.44732-7.154585 22.317428-3.333386 33.496467-3.658595 12.195316-0.365859 15.040889-5.000079 12.195316-16.260421-9.715601-36.585947-31.504565-63.618896-64.025407-83.253354 39.065661-2.886225 71.342596 11.179039 96.99341 39.838031a210.653751 210.653751 0 0 1 38.537197 63.903453z" fill="#892A29" p-id="74484"></path><path d="M667.510579 161.262723c-0.731719 10.44732 1.626042 21.667011-7.276538 30.12243-9.552997 8.13021-19.837713 17.195395-31.911076 17.39865-88.49734 1.463438-177.36054 14.065264-265.248114-7.276538-12.845732-11.179039-6.910679-26.423184-8.577372-40.041286a2861.224295 2861.224295 0 0 1 313.0131-0.203256z" fill="#E8E1E2" p-id="74485"></path><path d="M363.074851 201.507265c18.902739-14.634379 41.179516-9.878206 62.277411-10.000159 78.293926-0.447162 156.587852 0 234.881779 0-29.797221 92.72505-83.131401 106.790314-149.92108 36.301389-25.081699 24.390631-48.781262 56.139103-91.383565 40.041287-30.935451-11.748154-51.301628-32.398888-55.854545-66.342517z" fill="#FCFBFC" p-id="74486"></path><path d="M929.91312 0H913.408793a109.107424 109.107424 0 0 0-109.107424 109.107424v41.667328A439.925685 439.925685 0 1 0 950.726458 512.203255a10.284716 10.284716 0 0 0 1.341485-5.081381V22.195474A22.154823 22.154823 0 0 0 929.91312 0z m-417.892815 771.67892A292.159111 292.159111 0 1 1 804.138765 479.682414a292.687574 292.687574 0 0 1-292.11846 291.996506z" fill="#FF6700" p-id="74487"></path><path d="M527.223799 583.342596a50.895117 50.895117 0 0 0-38.821755-8.861929c39.634776 47.073918 59.960302 99.391822 61.870901 158.539103 0.934974 4.065105-0.569115 5.162684-4.309011 3.699245a382.851608 382.851608 0 0 0-53.252879-106.627709c-45.447876-62.887177-127.197142-82.440333-188.539579-24.390631l30.935451 21.382453c41.220167 8.13021 69.675903 37.236364 89.432314 76.50528 4.26836 8.536721 12.195316 12.439222 19.024693 17.683208 1.991902 4.065105 4.065105 8.577372 5.975704 12.845732 21.2605 44.716157 41.667328 89.757523 77.64351 125.327193 19.431203 19.187297 41.911235 31.789123 69.513299 34.187535 53.537435 4.593569 80.976896-28.943549 65.041683-79.879317a222.483208 222.483208 0 0 0-10.650576-26.301231c-13.658753-29.472013-26.423184-59.431838-41.911235-87.928225-0.203255-0.121953-47.358476-92.481143-81.95252-116.180707z" fill="#492B0E" p-id="74488"></path><path d="M600.395692 713.425963a50.895117 50.895117 0 0 0-38.821754-8.86193c39.634776 47.073918 59.960302 99.391822 61.870901 158.539103 0.934974 4.065105-0.569115 5.162684-4.309012 3.699246a382.851608 382.851608 0 0 0-53.252878-106.62771c-45.447876-63.049782-127.197142-82.602938-188.539579-24.675188l30.93545 21.382453c41.220167 8.13021 69.675903 37.236364 89.432315 76.50528 4.26836 8.536721 12.195316 12.439222 19.024692 17.683208 1.991902 4.065105 4.065105 8.577372 5.975705 12.845732 21.2605 44.716157 41.667328 89.757523 77.643509 125.327194 19.431203 19.187297 41.911235 31.789123 69.513299 34.187534 53.537435 4.593569 80.976896-28.943549 65.041683-79.879317a222.483208 222.483208 0 0 0-10.650575-26.301231c-13.658753-29.472013-26.423184-59.431838-41.911235-87.928225-0.203255 0.162604-47.358476-92.196586-81.952521-115.896149z" fill="#E03C3A" p-id="74489"></path></svg>