<?xml version="1.0" standalone="no"?><!DOCTYPE svg PUBLIC "-//W3C//DTD SVG 1.1//EN" "http://www.w3.org/Graphics/SVG/1.1/DTD/svg11.dtd"><svg t="1641480322460" class="icon" viewBox="0 0 1024 1024" version="1.1" xmlns="http://www.w3.org/2000/svg" p-id="36270" xmlns:xlink="http://www.w3.org/1999/xlink" width="200" height="200"><defs><style type="text/css"></style></defs><path d="M109.653333 353.536L479.573333 95.573333c19.541333-13.653333 45.482667-13.653333 65.024 0l369.834667 257.962667A56.917333 56.917333 0 0 1 938.666667 400.213333v481.536a56.917333 56.917333 0 0 1-56.917334 56.917334H142.250667A56.917333 56.917333 0 0 1 85.333333 881.749333V400.213333c0-18.602667 9.130667-36.010667 24.32-46.677333zM273.066667 565.333333a34.133333 34.133333 0 0 0-34.133334 34.133334v136.533333a34.133333 34.133333 0 1 0 68.266667 0v-136.533333a34.133333 34.133333 0 0 0-34.133333-34.133334z m238.933333-85.333333a34.133333 34.133333 0 0 0-34.133333 34.133333v221.866667a34.133333 34.133333 0 1 0 68.266666 0v-221.866667a34.133333 34.133333 0 0 0-34.133333-34.133333z m214.784 9.984a34.133333 34.133333 0 0 0-9.984 24.149333v221.866667a34.133333 34.133333 0 1 0 68.266667 0v-221.866667a34.133333 34.133333 0 0 0-58.282667-24.149333z" fill="#8B60F0" p-id="36271"></path></svg>