<?xml version="1.0" standalone="no"?><!DOCTYPE svg PUBLIC "-//W3C//DTD SVG 1.1//EN" "http://www.w3.org/Graphics/SVG/1.1/DTD/svg11.dtd"><svg t="1640263706960" class="icon" viewBox="0 0 1024 1024" version="1.1" xmlns="http://www.w3.org/2000/svg" p-id="9882" xmlns:xlink="http://www.w3.org/1999/xlink" width="200" height="200"><defs><style type="text/css"></style></defs><path d="M512 0C794.960386 0 1024 229.039614 1024 512S794.960386 1024 512 1024 0 794.960386 0 512 229.039614 0 512 0z" fill="#BD10E0" p-id="9883"></path><path d="M513.978744 429.38744c-10.883092 2.968116-22.26087-3.462802-24.7343-14.345894L420.483092 160.278261c-2.968116-10.883092 3.462802-21.766184 14.345894-24.7343L720.757488 59.362319c108.830918 51.447343 196.390338 139.996135 246.353623 249.321739l-453.132367 120.703382zM286.917874 727.188406c-30.670531 0-59.362319-9.399034-83.601932-24.7343l-35.617391 35.617392c-12.36715 12.36715-33.143961 12.36715-45.511111 0-12.36715-12.36715-12.36715-33.143961 0-45.511112l35.617391-35.617391c-15.335266-23.744928-24.7343-52.436715-24.7343-83.107246 0-84.591304 68.761353-153.352657 153.352657-153.352657S440.270531 488.749758 440.270531 573.341063 371.509179 727.188406 286.917874 727.188406z" fill="#9005AD" p-id="9884"></path><path d="M524.36715 418.999034c-10.883092 2.968116-22.26087-3.462802-24.7343-14.345894L430.871498 150.384541c-2.968116-10.883092 3.462802-21.766184 14.345893-24.734299L730.651208 49.468599c108.830918 51.447343 196.390338 139.996135 246.353623 249.321739L524.36715 418.999034z" fill="#324D5B" p-id="9885"></path><path d="M317.588406 696.517874c-30.670531 0-59.362319-9.399034-83.601933-24.734299l-35.617391 35.617391c-12.36715 12.36715-33.143961 12.36715-45.511111 0-12.36715-12.36715-12.36715-33.143961 0-45.511111l35.617391-35.617391c-15.335266-23.744928-24.7343-52.436715-24.734299-83.107247 0-84.591304 68.761353-153.352657 153.352657-153.352657s153.847343 68.761353 153.847343 153.352657-68.761353 153.352657-153.352657 153.352657z" fill="#F2F1EF" p-id="9886"></path><path d="M317.588406 429.882126c62.330435 0 112.788406 50.457971 112.788406 112.788405s-50.457971 112.788406-112.788406 112.788406-112.788406-50.457971-112.788406-112.788406 50.457971-112.788406 112.788406-112.788405z" fill="#9B481A" p-id="9887"></path><path d="M644.081159 1006.68599L504.57971 765.279227c-5.936232-9.89372-2.47343-22.755556 7.42029-28.197101l375.466667-212.22029c9.89372-5.936232 22.755556-2.47343 28.197101 7.42029l81.623189 141.480193c-53.920773 162.751691-186.496618 288.401932-353.205798 332.923671z" fill="#E4E7E7" p-id="9888"></path><path d="M996.495459 672.377198l-10.388406-18.303382-409.6 235.965218 10.388406 18.303381 409.6-235.965217z m-461.542029 144.942995l10.388406 18.303382 409.6-235.965218-10.388406-18.303381-409.6 235.965217z m395.254106-10.388406c8.904348-12.36715 16.819324-25.228986 24.7343-38.090821l-336.386474 193.422222 10.388406 18.303382 301.263768-173.634783z" fill="#D7D8D8" p-id="9889"></path><path d="M541.681159 693.549758c-4.94686-8.409662-14.84058-11.872464-22.260869-7.914975-7.42029 3.957488-9.399034 14.345894-4.452174 22.755555l23.250241 39.574879c4.94686 8.409662 15.335266 11.872464 22.26087 7.914976 7.42029-3.957488 9.399034-14.345894 4.452174-22.755555l-23.250242-39.57488z m53.920773-30.175845c-4.94686-8.409662-14.84058-11.872464-22.260869-7.914976-7.42029 3.957488-9.399034 14.345894-4.452174 22.755556l23.250241 39.574879c4.94686 8.409662 14.84058 11.872464 22.26087 7.914976 7.42029-3.957488 9.399034-14.345894 4.452174-22.755556l-23.250242-39.574879z m53.920773-30.670531c-4.94686-8.409662-15.335266-11.872464-22.260869-7.914976-7.42029 3.957488-9.399034 14.345894-4.452174 22.755555l23.250241 39.57488c4.94686 8.409662 14.84058 11.872464 22.26087 7.914975s9.399034-14.345894 4.452174-22.755555l-23.250242-39.574879z m53.426087-30.175846c-4.94686-8.409662-15.335266-11.872464-22.260869-7.914976-7.42029 3.957488-9.399034 14.345894-4.452174 22.755556l23.250241 39.574879c4.94686 8.409662 14.84058 11.872464 22.26087 7.914976s9.399034-14.345894 4.452174-22.755556l-23.250242-39.574879z m53.920773-30.670531c-4.94686-8.409662-15.335266-11.872464-22.755555-7.914976-7.42029 3.957488-9.399034 14.345894-4.452174 22.755556l23.250241 39.574879c4.94686 8.409662 14.84058 11.872464 22.26087 7.914976 7.42029-3.957488 9.399034-14.345894 4.452174-22.755556l-22.755556-39.574879z m53.920773-30.175846c-4.94686-8.409662-15.335266-11.872464-22.755555-7.914975s-9.399034 14.345894-4.452174 22.755555l23.250241 39.574879c4.94686 8.409662 14.84058 11.872464 22.26087 7.914976 7.42029-3.957488 9.399034-14.345894 4.452174-22.755555l-22.755556-39.57488z m77.171015 8.904348l-23.250242-39.574879c-4.94686-8.409662-14.84058-11.872464-22.260869-7.914976-7.42029 3.957488-9.399034 14.345894-4.452174 22.755556l23.250241 39.574879c4.94686 8.409662 14.84058 11.872464 22.26087 7.914976 7.42029-3.957488 9.399034-13.851208 4.452174-22.755556z" fill="#CCD0D2" p-id="9890"></path><path d="M296.811594 461.047343c62.330435 0 112.788406 50.457971 112.788406 112.788406 0 16.324638-3.462802 32.154589-9.89372 46.005797 18.798068-20.282126 30.175845-46.995169 30.175846-76.676329C429.882126 480.834783 379.424155 430.376812 317.09372 430.376812c-46.005797 0-85.08599 27.207729-102.894686 66.782608 21.271498-22.755556 50.457971-36.112077 82.61256-36.112077z" fill="#8B4117" p-id="9891"></path><path d="M520.904348 755.385507c-4.452174-7.914976-2.968116-17.808696 2.968116-24.734299l-11.377778 6.430918c-9.89372 5.936232-13.356522 18.303382-7.42029 28.197101l139.501449 241.406763 19.292754-5.936232-142.964251-245.364251z" fill="#D0D3D3" p-id="9892"></path><path d="M562.161159 825.927729l-10.883091-17.808695-16.324638 9.399034 10.388406 18.303381 16.819323-9.89372z m83.601933 144.44831l-10.388406-17.808696-16.819324 9.89372 10.388406 18.303381 16.819324-10.388405z m-41.553623-72.224155l-10.388406-18.303382-16.819324 9.89372 10.388406 18.303382 16.819324-9.89372z" fill="#B9BCBE" p-id="9893"></path><path d="M672.476135 672.327729l-1.484058-2.473429-26.713043 15.335265 1.484058 2.47343c4.94686 7.914976 14.345894 11.377778 21.271497 8.409662l1.978744-0.989372c6.925604-4.94686 8.409662-14.84058 3.462802-22.755556z m-127.134299 83.107247c4.94686 2.968116 10.388406 2.968116 15.335265 0.494686 7.42029-3.957488 9.399034-14.345894 4.452174-22.755556l-0.989372-1.484058-24.239613 13.851208 5.441546 9.89372z m46.500483-37.596135c4.94686 8.409662 14.84058 11.872464 22.260869 7.914975 7.42029-3.957488 9.399034-14.345894 4.452174-22.755555l-0.989372-1.978744-26.713043 14.84058 0.989372 1.978744z m295.822222-167.203865l-2.47343-4.452174-26.713043 15.335266 2.47343 4.452174c3.462802 5.936232 8.904348 8.904348 14.840579 9.399033l13.356522-7.914975c2.47343-4.94686 1.978744-10.883092-1.484058-16.819324z m-161.267633 91.516908l-1.978744-2.968116-26.713043 15.335266 1.484058 2.968116c3.957488 6.925604 11.872464 10.388406 18.798067 8.904348l6.925604-3.957488c4.94686-5.441546 5.936232-13.356522 1.484058-20.282126z m107.841546-60.846377l-2.47343-3.957488-26.713043 15.335266 2.47343 3.957488c3.462802 5.936232 9.89372 9.399034 15.829951 9.399034l11.872464-6.925604c2.47343-4.94686 2.47343-11.872464-0.989372-17.808696z m-53.920773 30.175846l-1.978744-3.462802-26.713043 15.335265 1.978744 3.462802c3.957488 6.430918 10.388406 9.89372 16.819323 9.399034l9.89372-5.936232c3.462802-4.94686 3.462802-12.36715 0-18.798067z" fill="#B7BBBD" p-id="9894"></path><path d="M568.888889 3.462802c-19.292754 35.122705-38.585507 68.761353-16.324638 109.325604l19.78744-11.872464c-18.303382-33.638647-0.494686-61.341063 17.808695-94.485024-6.925604-1.484058-13.851208-2.47343-21.271497-2.968116z" fill="#324D5B" p-id="9895"></path><path d="M741.633237 226.368309c1.484058 5.441546 6.925604 8.904348 12.861835 7.42029l30.175846-7.914976c5.441546-1.484058 8.904348-7.42029 7.42029-12.861836l-7.914976-30.175845c-1.484058-5.441546-6.925604-8.904348-12.861836-7.42029l-30.175845 7.914976c-5.441546 1.484058-8.904348 7.42029-7.42029 12.861836l7.914976 30.175845z m-131.586474-50.952657l-7.914976-30.175845c-1.484058-5.441546-6.925604-8.904348-12.861835-7.42029l-30.175846 7.914976c-5.441546 1.484058-8.904348 7.42029-7.42029 12.861836l7.914976 30.175845c1.484058 5.441546 6.925604 8.904348 12.861836 7.42029l30.175845-7.914976c5.441546-1.484058 8.904348-7.42029 7.42029-12.861836z m160.278261-43.037681l-7.914976-30.175845c-1.484058-5.441546-6.925604-8.904348-12.861835-7.42029l-30.175846 7.914976c-5.441546 1.484058-8.904348 7.42029-7.42029 12.861835l7.914976 30.175846c1.484058 5.441546 6.925604 8.904348 12.861836 7.42029l30.175845-7.914976c5.441546-1.484058 8.904348-7.42029 7.42029-12.861836z m131.586474 50.457971c0.989372 3.957488 4.452174 6.925604 8.409661 7.42029-2.968116-3.957488-6.430918-7.42029-9.399033-11.377778l0.989372 3.957488z m-50.952657-29.186473l-30.175846 7.914975c-5.441546 1.484058-8.904348 7.42029-7.42029 12.861836l7.914976 30.175846c1.484058 5.441546 7.42029 8.904348 12.861836 7.420289l30.175845-7.914975c5.441546-1.484058 8.904348-7.42029 7.42029-12.861836l-7.914976-30.175846c-1.484058-5.441546-6.925604-8.904348-12.861835-7.420289z m-371.509179 56.888888c1.484058 5.441546 7.42029 8.904348 12.861836 7.42029l30.175845-7.914976c5.441546-1.484058 8.904348-7.42029 7.42029-12.861835l-7.914976-30.175846c-1.484058-5.441546-7.42029-8.904348-12.861836-7.42029l-30.175845 7.914976c-5.441546 1.484058-8.904348 7.42029-7.42029 12.861836l7.914976 30.175845z m312.641546-116.745893l7.914976 30.175845c1.484058 5.441546 7.42029 8.904348 12.861835 7.42029l30.175846-7.914976 1.484058-0.494686c-15.829952-13.851208-32.649275-26.218357-49.963285-38.090821-1.978744 2.47343-2.968116 5.936232-2.47343 8.904348z m-248.332367 196.390338c5.441546-1.484058 8.904348-7.42029 7.420289-12.861836l-7.914975-30.175845c-1.484058-5.441546-7.42029-8.904348-12.861836-7.42029l-30.175846 7.914976c-5.441546 1.484058-8.904348 7.42029-7.420289 12.861836l7.914975 30.175845c1.484058 5.441546 7.42029 8.904348 12.861836 7.42029l30.175846-7.914976z m389.81256-29.186473l-7.914976-30.175846c-1.484058-5.441546-6.925604-8.904348-12.861836-7.42029l-230.523671 61.835749c-5.441546 1.484058-8.904348 7.42029-7.42029 12.861836l7.914976 30.175845c1.484058 5.441546 6.925604 8.904348 12.861836 7.42029l230.523671-62.330435c5.441546-1.484058 8.904348-6.925604 7.42029-12.367149z m-272.077295-13.356522c1.484058 5.441546 7.42029 8.904348 12.861836 7.42029l30.175845-7.914976c5.441546-1.484058 8.904348-7.42029 7.42029-12.861836l-8.409662-30.175845c-1.484058-5.441546-6.925604-8.904348-12.861835-7.42029l-30.175846 7.914976c-5.441546 1.484058-8.904348 7.42029-7.42029 12.861835l8.409662 30.175846z m-109.82029 72.71884l-30.175845 7.914976c-5.441546 1.484058-8.904348 7.42029-7.42029 12.861836l7.914976 30.175845c1.484058 5.441546 6.925604 8.904348 12.861836 7.42029l30.175845-7.914976c5.441546-1.484058 8.904348-7.42029 7.42029-12.861835l-7.914976-30.175846c-1.484058-5.441546-6.925604-8.904348-12.861836-7.42029z m29.68116-50.952657c1.484058 5.441546 6.925604 8.904348 12.861836 7.42029l30.175845-7.914976c5.441546-1.484058 8.904348-7.42029 7.42029-12.861835l-7.914976-30.175846c-1.484058-5.441546-6.925604-8.904348-12.861836-7.42029l-30.175845 7.914976c-5.441546 1.484058-8.904348 7.42029-7.42029 12.861836l7.914976 30.175845z m108.830918-115.756521l-7.914976-30.175846c-1.484058-5.441546-7.42029-8.904348-12.861836-7.42029l-30.175845 8.409662c-5.441546 1.484058-8.904348 7.42029-7.42029 12.861836l7.914976 30.175845c1.484058 5.441546 7.42029 8.904348 12.861835 7.42029l30.175846-7.914976c5.441546-1.978744 8.904348-7.42029 7.42029-13.356521z m-87.559421 195.895652c1.484058 5.441546 7.42029 8.904348 12.861836 7.42029l30.175846-7.914976c5.441546-1.484058 8.904348-7.42029 7.420289-12.861836l-7.914975-30.175845c-1.484058-5.441546-7.42029-8.904348-12.861836-7.42029l-30.175846 7.914976c-5.441546 1.484058-8.904348 7.42029-7.420289 12.861835l7.914975 30.175846z" fill="#2D4552" p-id="9896"></path><path d="M751.873237 215.979903c1.484058 5.441546 6.925604 8.904348 12.861835 7.42029l30.175846-7.914976c5.441546-1.484058 8.904348-7.42029 7.42029-12.861835l-7.914976-30.175846c-1.484058-5.441546-6.925604-8.904348-12.861836-7.42029l-30.175845 7.914976c-5.441546 1.484058-8.904348 7.42029-7.42029 12.861836l7.914976 30.175845z m28.691787-93.990338l-7.914976-30.175845c-1.484058-5.441546-6.925604-8.904348-12.861835-7.42029l-30.175846 7.914976c-5.441546 1.484058-8.904348 7.42029-7.42029 12.861836l7.914976 30.175845c1.484058 5.441546 6.925604 8.904348 12.861836 7.42029l30.175845-7.914976c5.441546-1.484058 8.904348-7.42029 7.42029-12.861836z m30.175846-7.914976c1.484058 5.441546 6.925604 8.904348 12.367149 7.42029l14.84058-3.957488c-10.388406-8.904348-21.766184-17.31401-33.143961-25.723671l5.936232 22.260869z m-321.051208 86.075363c1.484058 5.441546 7.42029 8.904348 12.861836 7.42029l30.175845-7.914976c5.441546-1.484058 8.904348-7.42029 7.42029-12.861836l-7.914976-30.175845c-1.484058-5.441546-7.42029-8.904348-12.861836-7.42029l-30.175845 7.914976c-5.441546 1.484058-8.904348 7.42029-7.42029 12.861835l7.914976 30.175846z m377.940096-56.394203c-1.978744-0.494686-3.957488-0.989372-5.936231-0.494686l-30.175846 7.914976c-5.441546 1.484058-8.904348 7.42029-7.42029 12.861835l7.914976 30.175846c1.484058 5.441546 7.42029 8.904348 12.861836 7.42029l30.175845-7.914976c5.441546-1.484058 8.904348-7.42029 7.42029-12.861836l-7.914976-30.175845-0.494686-1.484058-6.430918-5.441546z m-247.342995 21.271497l-7.914976-30.175845c-1.484058-5.441546-6.925604-8.904348-12.861835-7.42029l-30.175846 7.914976c-5.441546 1.484058-8.904348 7.42029-7.42029 12.861836l7.914976 30.175845c1.484058 5.441546 6.925604 8.904348 12.861836 7.42029l30.175845-7.914976c5.441546-1.484058 8.904348-7.42029 7.42029-12.861836z m323.524638 85.580677l-6.430918-23.250242c-3.462802-4.94686-6.925604-9.399034-9.89372-14.345894h-4.452174l-230.523671 61.835749c-5.441546 1.484058-8.904348 7.42029-7.42029 12.861836l7.914976 30.175845c1.484058 5.441546 6.925604 8.904348 12.861836 7.42029l230.523671-61.835749c5.441546-1.484058 8.904348-7.42029 7.42029-12.861835z m-272.077295-13.356522c1.484058 5.441546 7.42029 8.904348 12.861836 7.42029l30.175845-7.914976c5.441546-1.484058 8.904348-7.42029 7.42029-12.861836l-8.409662-30.175845c-1.484058-5.441546-6.925604-8.904348-12.861835-7.42029l-30.175846 7.914976c-5.441546 1.484058-8.904348 7.42029-7.42029 12.861836l8.409662 30.175845z m28.691788-93.495652l-7.914976-30.175846c-1.484058-5.441546-7.42029-8.904348-12.861836-7.420289l-30.175845 7.914975c-5.441546 1.484058-8.904348 7.42029-7.42029 12.861836l7.914976 30.175846c1.484058 5.441546 7.42029 8.904348 12.861835 7.420289l30.175846-7.914975c5.441546-1.978744 8.904348-7.42029 7.42029-12.861836z m-138.512078 166.214493l-30.175845 7.914975c-5.441546 1.484058-8.904348 7.42029-7.42029 12.861836l7.914976 30.175846c1.484058 5.441546 6.925604 8.904348 12.861836 7.420289l30.175845-7.914975c5.441546-1.484058 8.904348-7.42029 7.42029-12.861836l-7.914976-30.175846c-1.484058-5.441546-6.925604-8.904348-12.861836-7.420289z m-38.090821-21.766184l30.175846-7.914976c5.441546-1.484058 8.904348-7.42029 7.420289-12.861836l-7.914975-30.175845c-1.484058-5.441546-7.42029-8.904348-12.861836-7.42029l-30.175846 7.914976c-5.441546 1.484058-8.904348 7.42029-7.420289 12.861836l7.914975 30.175845c1.978744 5.441546 7.42029 8.904348 12.861836 7.42029z m89.043478 51.447343c1.484058 5.441546 7.42029 8.904348 12.861836 7.42029l30.175846-7.914976c5.441546-1.484058 8.904348-7.42029 7.420289-12.861836l-7.914975-30.175845c-1.484058-5.441546-7.42029-8.904348-12.861836-7.42029l-30.175846 7.914976c-5.441546 1.484058-8.904348 7.42029-7.420289 12.861836l7.914975 30.175845z m-21.271497-80.633816c1.484058 5.441546 6.925604 8.904348 12.861836 7.420289l30.175845-7.914975c5.441546-1.484058 8.904348-7.42029 7.42029-12.861836l-8.409662-30.175846c-1.484058-5.441546-6.925604-8.904348-12.861836-7.420289l-30.175845 7.914975c-5.441546 1.484058-8.904348 7.42029-7.42029 12.861836l8.409662 30.175846z" fill="#475F6C" p-id="9897"></path></svg>