<?xml version="1.0" standalone="no"?><!DOCTYPE svg PUBLIC "-//W3C//DTD SVG 1.1//EN" "http://www.w3.org/Graphics/SVG/1.1/DTD/svg11.dtd"><svg t="1640263739185" class="icon" viewBox="0 0 1024 1024" version="1.1" xmlns="http://www.w3.org/2000/svg" p-id="11122" xmlns:xlink="http://www.w3.org/1999/xlink" width="200" height="200"><defs><style type="text/css"></style></defs><path d="M102.4 140.8h819.2v371.2H102.4z" fill="#0082FF" opacity=".304" p-id="11123"></path><path d="M166.4 947.2h691.2c14.08 0 25.6 11.52 25.6 25.6s-11.52 25.6-25.6 25.6H166.4c-14.08 0-25.6-11.52-25.6-25.6s11.52-25.6 25.6-25.6z" fill="#12CDEF" p-id="11124"></path><path d="M463.36 209.92l180.48 180.48c10.24 10.24 10.24 25.6 0 35.84-10.24 10.24-25.6 10.24-35.84 0L427.52 245.76c-10.24-10.24-10.24-25.6 0-35.84 10.24-10.24 26.88-10.24 35.84 0zM437.76 350.72l44.8 44.8c10.24 10.24 10.24 25.6 0 35.84-10.24 10.24-25.6 10.24-35.84 0l-44.8-44.8c-10.24-10.24-10.24-25.6 0-35.84 10.24-10.24 26.88-10.24 35.84 0z" fill="#00A9FF" p-id="11125"></path><path d="M0 563.2h1024v51.2H0zM371.2 780.8h51.2v217.6h-51.2zM601.6 780.8h51.2v217.6h-51.2z" fill="#12CDEF" p-id="11126"></path><path d="M512 697.6m-25.6 0a25.6 25.6 0 1 0 51.2 0 25.6 25.6 0 1 0-51.2 0Z" fill="#12CDEF" p-id="11127"></path><path d="M947.2 832H76.8c-42.24 0-76.8-34.56-76.8-76.8V115.2c0-42.24 34.56-76.8 76.8-76.8h870.4c42.24 0 76.8 34.56 76.8 76.8v640c0 42.24-34.56 76.8-76.8 76.8zM76.8 89.6c-14.08 0-25.6 11.52-25.6 25.6v640c0 14.08 11.52 25.6 25.6 25.6h870.4c14.08 0 25.6-11.52 25.6-25.6V115.2c0-14.08-11.52-25.6-25.6-25.6H76.8z" fill="#12CDEF" p-id="11128"></path></svg>