<?xml version="1.0" standalone="no"?><!DOCTYPE svg PUBLIC "-//W3C//DTD SVG 1.1//EN" "http://www.w3.org/Graphics/SVG/1.1/DTD/svg11.dtd"><svg t="1641480232562" class="icon" viewBox="0 0 1024 1024" version="1.1" xmlns="http://www.w3.org/2000/svg" p-id="30426" xmlns:xlink="http://www.w3.org/1999/xlink" width="200" height="200"><defs><style type="text/css"></style></defs><path d="M85.333333 85.333333m42.666667 0l256 0q42.666667 0 42.666667 42.666667l0 256q0 42.666667-42.666667 42.666667l-256 0q-42.666667 0-42.666667-42.666667l0-256q0-42.666667 42.666667-42.666667Z" fill="#FFBE6F" p-id="30427"></path><path d="M85.333333 512m42.666667 0l256 0q42.666667 0 42.666667 42.666667l0 341.333333q0 42.666667-42.666667 42.666667l-256 0q-42.666667 0-42.666667-42.666667l0-341.333333q0-42.666667 42.666667-42.666667Z" fill="#949BF3" p-id="30428"></path><path d="M512 725.333333m42.666667 0l341.333333 0q42.666667 0 42.666667 42.666667l0 128q0 42.666667-42.666667 42.666667l-341.333333 0q-42.666667 0-42.666667-42.666667l0-128q0-42.666667 42.666667-42.666667Z" fill="#76DAA4" p-id="30429"></path><path d="M512 85.333333m42.666667 0l341.333333 0q42.666667 0 42.666667 42.666667l0 469.333333q0 42.666667-42.666667 42.666667l-341.333333 0q-42.666667 0-42.666667-42.666667l0-469.333333q0-42.666667 42.666667-42.666667Z" fill="#7FBBFF" p-id="30430"></path></svg>