<?xml version="1.0" standalone="no"?><!DOCTYPE svg PUBLIC "-//W3C//DTD SVG 1.1//EN" "http://www.w3.org/Graphics/SVG/1.1/DTD/svg11.dtd"><svg t="1640333724268" class="icon" viewBox="0 0 1024 1024" version="1.1" xmlns="http://www.w3.org/2000/svg" p-id="7451" xmlns:xlink="http://www.w3.org/1999/xlink" width="200" height="200"><defs><style type="text/css"></style></defs><path d="M1004.202667 136.533333a19.797333 19.797333 0 0 1 19.797333 19.626667v667.306667a19.797333 19.797333 0 0 1-19.797333 19.626666h-222.72v58.88a19.797333 19.797333 0 0 1-19.797334 19.626667H296.448a19.797333 19.797333 0 0 1-19.797333-19.626667V843.093333H53.930667a19.797333 19.797333 0 0 1-19.797334-19.626666V156.16A19.797333 19.797333 0 0 1 53.930667 136.533333z m-262.314667 706.56H316.245333v39.253334h425.642667V843.093333zM984.405333 175.786667H73.728v628.053333h910.677333V175.786667z m-239.445333 218.589866c2.935467 0 5.870933 0.682667 8.635733 2.013867l157.013334 78.062933c6.656 3.413333 10.990933 10.3424 10.990933 18.056534v190.395733l-0.034133 0.512 0.034133 3.515733a20.411733 20.411733 0 0 1-4.539733 12.9024 32.597333 32.597333 0 0 1-13.755734 13.0048l-138.1376 68.881067a31.880533 31.880533 0 0 1-17.339733 3.208533l-2.8672 0.136534a20.1728 20.1728 0 0 1-8.635733-2.013867l-157.013334-78.062933a20.206933 20.206933 0 0 1-10.990933-18.056534V492.544c0-7.714133 4.334933-14.6432 10.990933-18.056533l157.013334-78.062934a20.1728 20.1728 0 0 1 8.635733-2.013866zM421.137067 238.933333c5.393067 0 9.796267 4.5056 9.796266 10.0352v501.111467c0 5.5296-4.437333 10.0352-9.796266 10.0352h-274.773334A9.9328 9.9328 0 0 1 136.533333 750.08V248.968533C136.533333 243.438933 140.970667 238.933333 146.3296 238.933333z m-29.457067 120.285867H175.786667v192.853333A23.210667 23.210667 0 0 1 191.624533 546.133333h94.549334c11.537067 0 20.992 7.68 20.992 17.066667s-9.454933 17.066667-20.992 17.066667h-94.549334a23.210667 23.210667 0 0 1-15.906133-5.973334v45.943467A22.357333 22.357333 0 0 1 191.146667 614.4h61.44c11.264 0 20.48 7.68 20.48 17.066667s-9.216 17.066667-20.48 17.066666H191.146667a22.357333 22.357333 0 0 1-15.394134-5.8368l0.034134 77.312h215.893333v-360.789333z m-148.138667 112.981333c10.6496 0 19.387733 8.942933 19.387734 19.899734 0 10.922667-8.738133 19.899733-19.387734 19.899733h-19.3536A19.694933 19.694933 0 0 1 204.8 492.100267c0-10.9568 8.704-19.933867 19.387733-19.933867h19.3536z m329.352534-59.733333c10.6496 0 19.3536 8.942933 19.3536 19.899733 0 10.922667-8.704 19.899733-19.3536 19.899734h-67.822934a19.694933 19.694933 0 0 1-19.3536-19.899734c0-10.9568 8.704-19.933867 19.3536-19.933866h67.822934z m-213.0944-9.966933c10.6496 0 19.3536 8.942933 19.3536 19.899733 0 10.922667-8.704 19.899733-19.3536 19.899733H224.187733A19.694933 19.694933 0 0 1 204.8 422.4c0-10.922667 8.704-19.899733 19.387733-19.899733h135.611734z m339.012266-59.733334c10.6496 0 19.387733 8.942933 19.387734 19.899734 0 10.922667-8.738133 19.899733-19.387734 19.899733h-193.7408a19.694933 19.694933 0 0 1-19.3536-19.899733c0-10.922667 8.704-19.899733 19.3536-19.899734h193.7408z m-307.131733-63.726933L375.466667 279.005867V307.2H175.786667v11.946667h215.893333V279.005867zM902.212267 273.066667c10.683733 0 19.387733 8.942933 19.387733 19.899733 0 10.9568-8.704 19.933867-19.387733 19.933867H505.070933a19.694933 19.694933 0 0 1-19.3536-19.933867c0-10.922667 8.704-19.899733 19.3536-19.899733h397.141334z" fill="#11B4BD" p-id="7452"></path></svg>