<?xml version="1.0" standalone="no"?><!DOCTYPE svg PUBLIC "-//W3C//DTD SVG 1.1//EN" "http://www.w3.org/Graphics/SVG/1.1/DTD/svg11.dtd"><svg t="1640234773549" class="icon" viewBox="0 0 1024 1024" version="1.1" xmlns="http://www.w3.org/2000/svg" p-id="2722" xmlns:xlink="http://www.w3.org/1999/xlink" width="200" height="200"><defs><style type="text/css"></style></defs><path d="M929.26 223.26v622.8a83.19 83.19 0 0 1-83.2 83.2h-622.8a126 126 0 0 1-126-126v-580a125.93 125.93 0 0 1 126-126h580a126 126 0 0 1 126 126z" fill="#00DEBF" p-id="2723"></path><path d="M732.36 929.26h-509.1a126 126 0 0 1-126-126v-432q12.42-0.5 24.95-0.5 15.06 0 29.94 0.72c294.42 14.17 534.33 236.22 576.12 522.58q2.54 17.46 4.09 35.2z" fill="#FFFFFF" opacity=".2" p-id="2724"></path><path d="M929.26 223.26v622.8a82.87 82.87 0 0 1-6.69 32.74A635.16 635.16 0 0 1 776 895.86q-24.06 0-47.69-1.77c-291-21.67-527.21-240-576.12-522.58A638.51 638.51 0 0 1 160.38 114a125.48 125.48 0 0 1 62.88-16.78h580a126 126 0 0 1 126 126.04z" fill="#FFFFFF" opacity=".14" p-id="2725"></path><path d="M653.69 448.31q0.18-3.4 0.18-6.84a134.62 134.62 0 0 0-269.23 0c0 2.19 0.06 4.36 0.16 6.52-1.39 0-2.79-0.07-4.19-0.07A134.6 134.6 0 0 0 246 582.6c0 74.53 61.37 134.54 135.9 134.54h158.85c-14.15-10.75-47-40.66-44.47-85C499.51 575.68 547.06 512 619.61 512S722 569.23 705.05 621.62 644.6 672.41 623.64 670s-61.26-20.15-54-53.2 46-26.6 58.85-5.64 54 0 43.52-29.83-74.68-70.89-124.94-5.64c-14.69 19.08-19.11 39.76-16.65 60.12 5.64 46.65 46 81.34 93 81.34h18.81c74.07 0 135.17-59.32 135.82-133.39a134.61 134.61 0 0 0-124.36-135.45z" fill="#FFFFFF" p-id="2726"></path></svg>