<?xml version="1.0" standalone="no"?><!DOCTYPE svg PUBLIC "-//W3C//DTD SVG 1.1//EN" "http://www.w3.org/Graphics/SVG/1.1/DTD/svg11.dtd"><svg t="1640264073377" class="icon" viewBox="0 0 1024 1024" version="1.1" xmlns="http://www.w3.org/2000/svg" p-id="14626" data-spm-anchor-id="a313x.7781069.0.i6" xmlns:xlink="http://www.w3.org/1999/xlink" width="200" height="200"><defs><style type="text/css"></style></defs><path d="M512 904c216.496 0 392-175.504 392-392S728.496 120 512 120 120 295.504 120 512s175.504 392 392 392z m0 40c-238.584 0-432-193.416-432-432s193.416-432 432-432 432 193.416 432 432-193.416 432-432 432z" p-id="14627" data-spm-anchor-id="a313x.7781069.0.i5" class="selected" fill="#1a3ca6"></path><path d="M303.68 395.392c28.224 0 51.744 7.392 69.888 22.176 14.696 11.872 24.4 27.536 29.312 46.616 0.928 3.6 0.928 11.176-5.616 11.176H373.84c-7.416 0-8.6-5.704-9.584-8.328-4.304-11.56-10.88-20.256-19.92-26.28-10.752-7.392-24.528-10.752-41.328-10.752-25.2 0-44.016 8.4-56.784 25.872-11.76 15.456-17.472 36.96-17.472 64.512 0 28.224 5.712 50.064 17.136 65.184 12.432 16.128 31.92 24.528 58.128 24.528 17.136 0 31.248-4.368 42-12.432 8.8-6.984 15.6-16.76 20.408-29.168 1.44-3.704 2.4-11.824 11.136-11.824h22.592c8.12 0 6.632 8.16 5.536 12.024-6.368 22.48-17.896 40.36-34.808 53.832-18.48 14.784-40.656 22.176-66.528 22.176-39.984 0-69.888-12.768-89.376-37.632-17.136-21.504-25.536-50.4-25.536-86.688 0-35.616 8.736-64.848 26.544-87.024 20.16-25.536 49.392-37.968 87.696-37.968z m157.792 4.704h140.24a16.8 16.8 0 1 1 0 33.6H484.784v66.528h108.864a16.8 16.8 0 1 1 0 33.6H484.784V606.4h122.64a16.8 16.8 0 1 1 0 33.6H461.472a16 16 0 0 1-16-16V416.096a16 16 0 0 1 16-16z m198.032 0h162.96a16.8 16.8 0 1 1 0 33.6H760.64v186.648a19.656 19.656 0 0 1-39.312 0V433.696h-61.824a16.8 16.8 0 1 1 0-33.6z" p-id="14628" data-spm-anchor-id="a313x.7781069.0.i7" class="selected" fill="#1a3ca6"></path></svg>